<?xml version="1.0" encoding="UTF-8"?>
<svg version="1.1" xmlns="http://www.w3.org/2000/svg" width="1024" height="1024">
<path d="M0 0 C1.604061 -0.00463477 3.20812091 -0.0096603 4.81217957 -0.01504517 C9.15341609 -0.02810849 13.4946372 -0.03460232 17.83589029 -0.03905582 C20.55439234 -0.04199662 23.27289027 -0.0461033 25.99139023 -0.05056 C34.51514544 -0.06421948 43.03889113 -0.07389348 51.56265652 -0.07776189 C61.36820488 -0.08223776 71.17361352 -0.0997703 80.97911942 -0.12876248 C88.581138 -0.15045143 96.18311747 -0.16047002 103.78516662 -0.16180301 C108.31498407 -0.16284596 112.8446699 -0.1686442 117.3744545 -0.18662262 C121.6410662 -0.20322844 125.90744909 -0.20519885 130.1740818 -0.19648361 C131.72916977 -0.19571986 133.28427069 -0.19996723 134.83932686 -0.20994186 C153.16052532 -0.3204516 168.3027842 2.80166715 181.94091797 15.74707031 C192.5634149 27.2640933 193.61931926 40.57860324 193.5715332 55.59375 C193.57724654 57.22619084 193.58421451 58.85862769 193.59233093 60.49105835 C193.6101747 64.89629061 193.60911016 69.30132271 193.60338855 73.70658016 C193.60028277 77.39893036 193.60640477 81.09124288 193.61242729 84.78358769 C193.6264432 93.50386942 193.6249368 102.22405313 193.61352539 110.94433594 C193.60205744 119.90516742 193.61610428 128.86569914 193.64292186 137.82649112 C193.66516363 145.55089621 193.67169694 153.27520781 193.66584545 160.99964261 C193.66249361 165.59932973 193.66477136 170.19882497 193.68209648 174.7984848 C193.69769854 179.12924264 193.69346514 183.45956097 193.67479134 187.79030228 C193.67114126 189.36754149 193.67410751 190.94481423 193.68467712 192.52202225 C193.80634752 212.20099802 188.48383285 230.15381505 175.16748047 245.16113281 C174.67119141 245.75023437 174.17490234 246.33933594 173.66357422 246.94628906 C161.7592057 260.04407798 143.61489865 267.22742631 126.21289825 268.3520813 C123.03460648 268.43021682 119.86137898 268.45106541 116.68212891 268.44824219 C115.48542068 268.45507523 114.28871246 268.46190826 113.05574036 268.46894836 C109.80546498 268.4859707 106.55529503 268.49460037 103.30498409 268.49998665 C99.87802249 268.50825978 96.45114074 268.52919553 93.02423096 268.54919434 C84.32201849 268.59791393 75.61977212 268.63036697 66.91748047 268.66113281 C57.53178481 268.69435324 48.1461526 268.73059068 38.7605536 268.78526354 C35.36259322 268.80459843 31.96471662 268.81995408 28.5667038 268.8256073 C-20.48883743 268.92270978 -52.2713929 283.26093949 -86.62548828 317.65332031 C-88.10731483 319.13124676 -89.58935971 320.60895433 -91.0716095 322.0864563 C-94.15668356 325.16412562 -97.23793027 328.24556495 -100.31665039 331.32958984 C-104.23134385 335.25008405 -108.15730998 339.15906966 -112.08646679 343.06506157 C-115.14351262 346.10726899 -118.19349004 349.15648922 -121.24157143 352.20767593 C-122.68508339 353.65068022 -124.13090912 355.09137432 -125.57924461 356.5295372 C-136.42435693 367.30774692 -146.72053575 378.26946973 -154.02001953 391.84863281 C-154.63417725 392.98099365 -154.63417725 392.98099365 -155.26074219 394.13623047 C-162.89514441 408.55942401 -167.2954437 423.06561538 -169.83251953 439.16113281 C-170.00189026 440.15702423 -170.17126099 441.15291565 -170.34576416 442.1789856 C-171.00655991 446.85391891 -170.98488848 451.50654168 -170.99023438 456.22045898 C-170.99531509 457.20682343 -171.00039581 458.19318787 -171.00563049 459.20944214 C-171.01629511 461.34283258 -171.02493046 463.47623393 -171.03174973 465.60964012 C-171.04360038 468.99505194 -171.06306961 472.38033971 -171.08486938 475.76570129 C-171.1462735 485.38843615 -171.20044703 495.0111572 -171.23388672 504.6340332 C-171.25492037 510.52961845 -171.29029173 516.42497497 -171.33464432 522.32042885 C-171.34873373 524.55730802 -171.35751067 526.79422764 -171.3606987 529.03114891 C-171.38348622 543.4907485 -171.68872947 556.2052269 -178.52001953 569.28613281 C-178.86742187 569.96353516 -179.21482422 570.6409375 -179.57275391 571.33886719 C-182.67083502 577.1945196 -186.34537267 582.27806123 -190.83251953 587.16113281 C-191.46931641 587.86625 -192.10611328 588.57136719 -192.76220703 589.29785156 C-206.21864633 603.48385685 -225.33608859 612.75661673 -244.9525876 613.61495578 C-248.56558596 613.69792937 -252.17495162 613.68729661 -255.78857422 613.6628418 C-257.41676803 613.66663715 -259.04495858 613.6721471 -260.67314148 613.67921448 C-265.04283601 613.69302361 -269.4121304 613.68210515 -273.78180218 613.66550326 C-278.38190103 613.65151893 -282.98197977 613.65812756 -287.58209229 613.66163635 C-295.2982824 613.66432692 -303.01431592 613.65095906 -310.73046875 613.62768555 C-319.62383296 613.60104533 -328.51693624 613.59934506 -337.41032672 613.61107391 C-346.00778937 613.62188674 -354.60515857 613.61563962 -363.20261383 613.60151863 C-366.84345994 613.59579296 -370.48423689 613.59581427 -374.12508392 613.60058403 C-378.41646147 613.60538881 -382.70755648 613.59510873 -386.99888039 613.57362938 C-388.56447459 613.56811008 -390.13009622 613.56755097 -391.69569206 613.57258224 C-408.81112562 613.62065102 -423.06656269 610.36510115 -435.82861328 598.35644531 C-446.4317663 586.7405155 -447.28210347 573.62649979 -447.25244141 558.66455078 C-447.25979172 556.90580205 -447.26838073 555.14705812 -447.27810669 553.38832092 C-447.30023573 548.63381509 -447.30325751 543.87948302 -447.30135918 539.12493277 C-447.30123902 535.14194251 -447.30982195 531.15898846 -447.31813669 527.17600834 C-447.33734169 517.76868125 -447.34026597 508.36144288 -447.33349609 498.95410156 C-447.32686502 489.2849282 -447.34968881 479.61613725 -447.38680983 469.94704139 C-447.41761938 461.61627551 -447.42885448 453.28563189 -447.42497301 444.95481026 C-447.42291626 439.99229725 -447.42821666 435.03008164 -447.4528656 430.06762314 C-447.47531561 425.39373922 -447.47310512 420.72047124 -447.45293808 416.04658318 C-447.44955948 414.34397962 -447.45447885 412.64133311 -447.46892166 410.93878746 C-447.62085474 391.67934237 -442.74700547 375.95643223 -429.08251953 361.84863281 C-415.49507838 348.43952682 -399.10659341 345.02059225 -380.65942383 345.00341797 C-379.45982529 344.99833725 -378.26022675 344.99325653 -377.02427673 344.98802185 C-373.75085264 344.97457232 -370.47744161 344.96515324 -367.20400214 344.95660448 C-363.75355424 344.9458025 -360.30315155 344.92723535 -356.85273743 344.90878296 C-345.12167035 344.84719562 -333.39060794 344.79306214 -321.65942383 344.75976562 C-315.17053549 344.74126864 -308.68178054 344.71214448 -302.1929906 344.67176092 C-298.7724788 344.65093306 -295.35213328 344.63526891 -291.93155479 344.63295364 C-252.89754272 344.58228542 -220.01106618 337.47110258 -190.83251953 310.16113281 C-189.24928916 308.78601426 -187.66595349 307.41101693 -186.08251953 306.03613281 C-182.12271045 302.46764415 -178.51673473 298.70153243 -174.93017578 294.77050781 C-168.77569432 288.10297379 -162.39457935 281.68351191 -155.93798828 275.30957031 C-154.9628773 274.34500529 -153.98785145 273.3803542 -153.01290894 272.4156189 C-149.00473493 268.45162907 -144.99462281 264.48972025 -140.96850586 260.54394531 C-125.3936651 245.5985753 -125.3936651 245.5985753 -112.83251953 228.16113281 C-112.33856689 227.34386719 -111.84461426 226.52660156 -111.33569336 225.68457031 C-110.04003 223.47553995 -108.825725 221.24588638 -107.64501953 218.97363281 C-107.22994141 218.17973145 -106.81486328 217.38583008 -106.38720703 216.56787109 C-97.94545968 199.91777362 -93.67890599 182.24271975 -93.69067383 163.61254883 C-93.6871994 162.70380508 -93.68372498 161.79506134 -93.68014526 160.85877991 C-93.67283746 158.89950218 -93.66746582 156.94021645 -93.6638546 154.98092842 C-93.65661642 151.86254018 -93.64089397 148.74430279 -93.62251282 145.6259613 C-93.57040233 136.76409029 -93.52216567 127.90230399 -93.5065918 119.0402832 C-93.49641442 113.60265909 -93.4668475 108.16541995 -93.42527199 102.72794914 C-93.41309597 100.67466097 -93.40781573 98.62131811 -93.41007042 96.56799507 C-93.43273666 69.1786903 -87.41067782 44.26524498 -67.77392578 24.01660156 C-49.05135522 5.455486 -25.59320366 0.01727371 0 0 Z " fill="#e9e9e9ff" transform="translate(638.83251953125,184.8388671875)"/>
<path d="M0 0 C1.08257113 -0.00445668 1.08257113 -0.00445668 2.18701237 -0.0090034 C4.58799971 -0.01762517 6.98893681 -0.01919306 9.38993835 -0.02069092 C11.11856694 -0.02532364 12.84719452 -0.03034891 14.57582092 -0.03573608 C19.25981239 -0.04881647 23.94378955 -0.05529625 28.62779641 -0.05974674 C31.55749149 -0.06268391 34.48718271 -0.06678988 37.41687584 -0.07125092 C46.593096 -0.08491301 55.76930729 -0.09458653 64.94553691 -0.09845281 C75.52030775 -0.10293356 86.09494934 -0.12048772 96.66968089 -0.1494534 C104.85674976 -0.171097 113.04378232 -0.18115848 121.23087949 -0.18249393 C126.11493133 -0.18353983 130.99886147 -0.18940218 135.88288307 -0.20731354 C140.47859536 -0.22384109 145.07409501 -0.22592706 149.66982651 -0.21717453 C151.35076023 -0.21640672 153.03170562 -0.22071292 154.71261024 -0.23063278 C167.13791483 -0.29962645 178.04306976 0.13760544 187.50590515 9.14044189 C192.27270137 15.16165816 193.75405387 20.68977007 193.76660156 28.29754639 C193.77042711 28.99516602 193.77425266 29.69278565 193.77819413 30.41154528 C193.78847048 32.7372709 193.78454216 35.06274716 193.78056335 37.38848877 C193.78491306 39.06122057 193.79009708 40.73395038 193.79605103 42.40667725 C193.80943114 46.94432982 193.8100203 51.48189904 193.80748773 56.01956749 C193.80641636 59.81613726 193.81130614 63.61269028 193.81609315 67.40925646 C193.82718705 76.37630501 193.82762779 85.34331168 193.82157898 94.31036377 C193.8155521 103.53405868 193.8278177 112.75760056 193.84914905 121.98126936 C193.86682498 129.9187083 193.8727566 137.85609882 193.86951131 145.79355669 C193.86770626 150.52571807 193.87025538 155.25777052 193.88422585 159.98991394 C193.89689569 164.44857116 193.89477447 168.90699234 193.88181496 173.36564636 C193.8794686 174.99167972 193.88211318 176.61773016 193.89043808 178.2437439 C194.01511511 204.51483209 185.28598408 226.72623305 166.9785614 245.76934814 C147.55164454 264.45456186 124.06812017 268.45646523 98.02275085 268.4151001 C96.19471531 268.41945624 94.36668158 268.42464238 92.53865051 268.43058777 C87.61119922 268.44388672 82.68382505 268.44456705 77.75635934 268.44202447 C73.63099853 268.44094931 69.50565297 268.44585158 65.38029546 268.45062989 C55.64668156 268.46169189 45.91310627 268.46218007 36.17948914 268.45611572 C26.15748131 268.45006764 16.13561358 268.46241572 6.11362964 268.48368579 C-2.51517652 268.50132166 -11.14393814 268.50730032 -19.77276164 268.50404805 C-24.91604832 268.50223945 -30.05923486 268.50482979 -35.20250511 268.51876259 C-40.0363313 268.53136997 -44.86993908 268.52936936 -49.70376205 268.5163517 C-51.47177391 268.51399334 -53.2398013 268.51669391 -55.00779533 268.52497482 C-67.18365296 268.57787049 -78.76925377 268.58058368 -88.0839386 259.60919189 C-96.07318186 251.01440697 -95.93469633 241.7439842 -95.89814758 230.61505127 C-95.90385695 229.0437878 -95.9108234 227.47252848 -95.91894531 225.90127563 C-95.93683939 221.64868441 -95.9357142 217.3963 -95.93000293 213.14368248 C-95.92690247 209.58081357 -95.93301377 206.01798388 -95.93904167 202.45512056 C-95.953076 194.03736871 -95.95153763 185.61971834 -95.94013977 177.20196533 C-95.92868822 168.55420053 -95.94268667 159.90674694 -95.96953624 151.25902319 C-95.9917957 143.80727139 -95.99830685 136.35561651 -95.99245983 128.90383387 C-95.98910996 124.46559358 -95.99137146 120.02755217 -96.00871086 115.58934021 C-96.0243397 111.40635355 -96.02005083 107.22382133 -96.00140572 103.04085159 C-95.99776191 101.51886193 -96.00070281 99.99683741 -96.0112915 98.47488022 C-96.1881843 70.91014486 -84.63326684 47.86137919 -65.80659485 28.07794189 C-48.16000428 10.89501754 -24.81158779 0.05740011 0 0 Z " fill="#e9e9e9ff" transform="translate(638.4940948486328,529.8595581054688)"/>
<path d="M0 0 C1.8098064 -0.00435522 3.61961097 -0.00954105 5.42941284 -0.01548767 C10.31140328 -0.02879669 15.19331593 -0.0294658 20.07532096 -0.02692437 C24.16096067 -0.02584989 28.24658495 -0.03074978 32.33222133 -0.03552979 C41.97133003 -0.04659531 51.61039975 -0.04707799 61.24951172 -0.04101562 C71.17779295 -0.03496738 81.10593277 -0.04731523 91.03418988 -0.06858569 C99.5788846 -0.08621558 108.12353434 -0.09220116 116.66824657 -0.08894795 C121.76289113 -0.08713838 126.85743461 -0.08973949 131.95206261 -0.10366249 C136.73990974 -0.11626007 141.52753625 -0.11427849 146.3153801 -0.1012516 C148.06768558 -0.0988911 149.82000669 -0.10160156 151.57229424 -0.10987473 C172.96701962 -0.20357366 172.96701962 -0.20357366 181.29418945 7.5246582 C186.18786485 13.21911685 187.91963875 19.60583858 187.94526672 26.97488403 C187.94894341 27.65965659 187.9526201 28.34442915 187.9564082 29.04995239 C187.96744252 31.35028506 187.97128862 33.65057255 187.97509766 35.95092773 C187.98136308 37.59864444 187.98800995 39.24635974 187.99501038 40.89407349 C188.01606419 46.31519587 188.02642193 51.73631854 188.03637695 57.1574707 C188.04042564 59.02773936 188.04454259 60.89800786 188.04872704 62.76827621 C188.06779071 71.56596134 188.08201276 80.36363807 188.090339 89.16133988 C188.10008133 99.28672973 188.12631686 109.41189922 188.1668399 119.53721154 C188.19713409 127.3786636 188.21182088 135.22005304 188.21512002 143.06156242 C188.21745766 147.7363531 188.22624716 152.41090873 188.25158119 157.08563614 C188.27509712 161.49669122 188.27900216 165.90736053 188.26881981 170.31846237 C188.2683298 171.92389469 188.27448904 173.52934752 188.28837585 175.13471985 C188.40356806 189.26043689 186.55693843 203.30713051 180.1105957 216.0871582 C179.76810791 216.78599121 179.42562012 217.48482422 179.07275391 218.20483398 C167.42638413 241.17091671 146.87255714 257.36195558 122.71848011 265.28481293 C112.55570484 268.29417059 103.19121919 268.84741216 92.63867188 268.79223633 C90.86945015 268.79767086 89.10023297 268.80480091 87.33102417 268.81347656 C82.57301308 268.83154809 77.81535297 268.8247118 73.05733657 268.81196022 C68.05590046 268.8017559 63.05449223 268.81124562 58.05305481 268.81750488 C49.663408 268.82475644 41.27390263 268.81525578 32.88427734 268.79614258 C23.20412596 268.77434312 13.52431124 268.78145757 3.84416789 268.8034482 C-4.49595376 268.82163105 -12.83597442 268.82414749 -21.17610949 268.81369352 C-26.14500267 268.80747901 -31.11373779 268.80656723 -36.08262062 268.81983948 C-40.75076236 268.83144077 -45.41847163 268.82329451 -50.08656693 268.80026245 C-51.79329525 268.79499967 -53.50006034 268.79644721 -55.20677376 268.80531311 C-67.04886029 268.86113349 -76.83422007 268.17695617 -85.72924805 259.54418945 C-91.32884285 250.91457519 -90.63568119 241.18380768 -90.60595703 231.3347168 C-90.61166671 229.62375443 -90.61863327 227.91279588 -90.62675476 226.20184326 C-90.64464167 221.57336219 -90.64352543 216.94507119 -90.63781238 212.31656599 C-90.63471204 208.44040248 -90.64082281 204.56427503 -90.64685112 200.68811667 C-90.66088199 191.5335021 -90.65934888 182.37898086 -90.64794922 173.22436523 C-90.63648748 163.81255926 -90.65051423 154.40103889 -90.67734569 144.98927057 C-90.69958211 136.88274435 -90.70612172 128.77630724 -90.70026928 120.66975272 C-90.69691525 115.83976697 -90.69920976 111.00996393 -90.71652031 106.18000412 C-90.73211294 101.63095362 -90.72789899 97.08232174 -90.70921516 92.53328705 C-90.70556214 90.87542164 -90.70854025 89.21752437 -90.71910095 87.55968857 C-90.79882711 73.99498831 -89.01161758 61.3458014 -82.5769043 49.1496582 C-82.23771973 48.4920752 -81.89853516 47.83449219 -81.54907227 47.15698242 C-70.82925996 27.10633576 -52.15877014 9.25858641 -30.2019043 2.2746582 C-20.19488418 -0.10796219 -10.21173773 -0.01634878 0 0 Z " fill="#e9e9e9ff" transform="translate(282.201904296875,184.725341796875)"/>
</svg>
